# xmcd
#
# Track frame offsets:
#	150
#	23767
#	49222
#	64965
#	83730
#	101452
#	115372
#	130842
#	146375
#	168725
#	189580
#	210360
#	228117
#	246502
#	280215
#	311587
#
# Disc length: 4407 seconds
#
# Revision: 1
# Processed by: cddbd v1.5.2PL0 Copyright (c) Steve Scherf et al.
# Submitted via: audiograbber 1.83.01
#
DISCID=e1113510
DTITLE=Various Artist - One Nation Under The Blues
DYEAR=1998
DGENRE=Blues
TTITLE0=Z. Z. Hill - Down Home Blues
TTITLE1=B. B. King - There Must Be A Better World Somewhere
TTITLE2=Lonnie Brooks - Don't Go To Sleep On Me
TTITLE3=Etta James - Damn Your Eyes
TTITLE4=Albert King - Phone Booth
TTITLE5=James "Thunderbird" Davis - You Did Me Wrong
TTITLE6=John Lee Hooker - Ninety Days
TTITLE7=Joe Louis Walker - One Time Around
TTITLE8=Bobby Bland - Soon As The Weather Breaks
TTITLE9=Clarence "Gatemouth" Brown - Dollar Got The Blues
TTITLE10=Denise LaSalle - Your Husband Is Cheatin' On Us
TTITLE11=Robert Cray - Don't You Even Care
TTITLE12=Larry Davis - Fine 'Em, Fool 'Em And Forget 'Em
TTITLE13=Jeannis and Jimmie Cheatham - Meet Me With Your Black Drawers On
TTITLE14=Albert Collins - Lights Are On But Nobody's Home
TTITLE15=Little Milton Campbell - The Bluse Is Alright
EXTD=
EXTT0=
EXTT1=
EXTT2=
EXTT3=
EXTT4=
EXTT5=
EXTT6=
EXTT7=
EXTT8=
EXTT9=
EXTT10=
EXTT11=
EXTT12=
EXTT13=
EXTT14=
EXTT15=
PLAYORDER=
